<svg width="26" height="18" viewBox="0 0 26 18" fill="none" xmlns="http://www.w3.org/2000/svg">
<path d="M0 8.66253C0.148912 8.48635 0.297824 8.33953 0.476518 8.16334C3.09737 5.57933 5.68843 3.02468 8.30928 0.440669C8.36884 0.381941 8.45819 0.29385 8.51775 0.235122C8.90493 -0.0878793 9.44101 -0.0878794 9.76861 0.264486C10.126 0.587488 10.126 1.1454 9.7984 1.49777C9.70905 1.58586 9.64948 1.67395 9.56014 1.76204C7.53494 3.75878 5.50974 5.75551 3.48454 7.75225C3.39519 7.84034 3.33562 7.92843 3.21649 8.07525C3.42497 8.07525 3.57388 8.10462 3.69301 8.10462C10.6919 8.10462 17.6609 8.10462 24.6598 8.10462C24.8087 8.10462 24.9278 8.10462 25.0767 8.10462C25.4044 8.10462 25.6724 8.22207 25.8511 8.48635C25.8809 8.54507 25.9702 8.6038 26 8.63316C26 8.86807 26 9.10298 26 9.3379C25.9702 9.36726 25.9404 9.39662 25.9107 9.39662C25.6128 9.86644 25.1959 9.89581 24.6896 9.89581C17.6609 9.89581 10.6323 9.89581 3.63345 9.89581C3.51432 9.89581 3.36541 9.89581 3.18671 9.92517C3.30584 10.0426 3.36541 10.1307 3.45475 10.2188C5.53952 12.3036 7.65407 14.3591 9.73883 16.4439C10.2153 16.9138 10.126 17.5891 9.56014 17.9121C9.23253 18.0883 8.84536 18.0589 8.54754 17.824C8.45819 17.7359 8.36884 17.6478 8.2795 17.5598C5.65865 14.9757 3.06758 12.4211 0.476518 9.83708C0.297824 9.69026 0.148912 9.51408 0 9.36726C0 9.13235 0 8.89744 0 8.66253Z" fill="#1E201D"/>
</svg>
