<svg width="12" height="15" viewBox="0 0 12 15" fill="none" xmlns="http://www.w3.org/2000/svg">
<path d="M10.6578 6.82358C10.818 6.82358 10.9583 6.80309 11.0985 6.82358C11.6194 6.88505 11.98 7.29489 11.98 7.82768C11.98 8.60636 11.98 9.40555 11.98 10.1842C11.98 11.4342 11.98 12.7047 11.98 13.9547C11.98 14.426 11.6995 14.8359 11.2588 14.9588C11.1586 14.9793 11.0584 14.9998 10.9583 14.9998C8.97496 14.9998 6.99165 14.9998 5.00835 14.9998C3.66611 14.9998 2.32387 14.9998 0.981636 14.9998C0.520868 14.9998 0.1202 14.7129 0 14.2621C0.0200334 14.1801 0 14.0777 0 13.9752C0 11.926 0 9.87686 0 7.82768C0 7.25391 0.440735 6.80309 1.00167 6.80309C1.0818 6.80309 1.18197 6.80309 1.2621 6.80309C1.3222 6.80309 1.34224 6.78259 1.34224 6.72112C1.34224 6.08587 1.34224 5.47112 1.34224 4.83587C1.3222 2.84817 2.48414 1.06538 4.28714 0.327676C4.92821 0.0612827 5.60935 -0.0206845 6.31052 -0.000192726C8.47412 0.122758 9.93656 1.80309 10.3973 3.15554C10.5977 3.72932 10.6578 4.32358 10.6578 4.91784C10.6578 5.5121 10.6578 6.08587 10.6578 6.68013C10.6578 6.72112 10.6578 6.7621 10.6578 6.82358ZM8.65442 6.80309C8.65442 6.78259 8.65442 6.7621 8.65442 6.74161C8.65442 6.12686 8.65442 5.5121 8.65442 4.89735C8.65442 4.63095 8.65442 4.36456 8.57429 4.11866C8.11352 2.2744 6.03005 1.47522 4.50751 2.49981C3.72621 3.03259 3.32554 3.79079 3.32554 4.75391C3.32554 5.40964 3.32554 6.06538 3.32554 6.74161C3.32554 6.7621 3.32554 6.78259 3.32554 6.82358C5.10851 6.80309 6.87145 6.80309 8.65442 6.80309Z" fill="#A9A9A9"/>
</svg>
