<svg width="27" height="33" viewBox="0 0 27 33" fill="none" xmlns="http://www.w3.org/2000/svg">
<path d="M26.1431 10.8C25.8844 10.9778 25.6258 11.1395 25.3832 11.3174C24.5587 11.9317 23.8796 12.6593 23.3784 13.5485C22.9904 14.2599 22.7479 15.0198 22.6347 15.812C22.5054 16.8305 22.5539 17.8329 22.8126 18.8192C23.1359 20.0317 23.7665 21.0503 24.6719 21.9233C25.3347 22.5539 26.0623 23.0713 26.903 23.4431C26.9353 23.4593 26.9515 23.4754 27 23.4916C26.9838 23.5563 26.9677 23.6048 26.9515 23.6695C26.2563 25.7227 25.1892 27.582 23.8311 29.2796C23.3784 29.8455 22.9096 30.4114 22.3599 30.8802C21.8102 31.3491 21.1958 31.721 20.4844 31.8988C19.8701 32.0605 19.2719 32.0281 18.6737 31.8988C18.0755 31.7695 17.5096 31.5754 16.9599 31.3491C16.3617 31.1066 15.7635 30.9287 15.1329 30.8156C14.4216 30.7024 13.7263 30.7186 13.015 30.8479C12.3844 30.9611 11.7701 31.1551 11.1719 31.3976C10.606 31.6239 10.0401 31.818 9.44192 31.9311C8.47186 32.1413 7.56647 31.9635 6.74192 31.4299C6.20839 31.0904 5.73952 30.6701 5.303 30.2012C4.64012 29.4898 4.05809 28.7138 3.49222 27.9054C2.45749 26.4503 1.69761 24.8659 1.0994 23.1844C0.695213 22.0689 0.404195 20.9209 0.210183 19.7407C0.0485063 18.706 -0.0161643 17.6713 0.016171 16.6365C0.0808417 15.1976 0.355692 13.8072 0.970063 12.5138C1.58443 11.2042 2.44132 10.0886 3.60539 9.21556C4.70479 8.39101 5.93354 7.88981 7.29162 7.6958C8.27785 7.55029 9.23174 7.6473 10.1695 7.95448C10.8 8.1485 11.4144 8.37484 12.0287 8.60119C12.4976 8.76287 12.9503 8.92454 13.4353 9.02155C13.6617 9.07005 13.8719 9.05389 14.082 9.00538C14.7449 8.82754 15.3916 8.60119 16.0383 8.35868C16.7335 8.09999 17.4287 7.87365 18.1563 7.71197C18.9808 7.53412 19.8054 7.50179 20.6299 7.61496C21.4222 7.72814 22.1982 7.90598 22.9419 8.21317C24.1868 8.71436 25.2054 9.50658 25.9976 10.5736C26.0623 10.6868 26.0946 10.7353 26.1431 10.8ZM19.7569 0.0484963C19.1587 0.129335 18.5766 0.323347 18.0269 0.565862C15.9575 1.45508 14.5671 2.97484 13.8234 5.07664C13.5647 5.83652 13.4515 6.61257 13.5323 7.42095C13.5323 7.46945 13.5485 7.51796 13.5485 7.56646C13.8072 7.56646 14.0497 7.58263 14.2922 7.56646C15.0359 7.51796 15.7311 7.27544 16.3778 6.91975C17.1862 6.46706 17.8653 5.86886 18.4635 5.17365C19.482 3.99341 20.1449 2.63532 20.2419 1.05089C20.2581 0.711371 20.2581 0.355682 20.2096 -0.0161743C20.0641 0.016161 19.9024 0.0323287 19.7569 0.0484963Z" fill="black"/>
</svg>
