<svg width="27" height="27" viewBox="0 0 27 27" fill="none" xmlns="http://www.w3.org/2000/svg">
<g clip-path="url(#clip0_791_2020)">
<path d="M1.41628 7.41996C2.12441 6.03535 3.05044 4.82825 4.17619 3.76316C5.70141 2.32529 7.48083 1.27795 9.51446 0.638899C11.4391 0.0353483 13.4183 -0.124415 15.4338 0.0886027C17.6853 0.337123 19.7371 1.10044 21.5709 2.3963C22.0612 2.73357 22.5151 3.12411 22.9691 3.47914C21.6436 4.77499 20.3726 6.03535 19.0834 7.27795C18.7747 7.04718 18.4842 6.79866 18.1574 6.58564C16.6503 5.57381 14.9617 5.14777 13.1641 5.30754C10.0592 5.57381 7.84398 7.15369 6.39139 9.81641C6.20982 10.1537 6.08272 10.5087 5.93746 10.8638C5.55615 10.5797 5.17485 10.2957 4.79354 9.99393C4.08541 9.46138 3.37727 8.91109 2.66913 8.37854C2.32414 8.11227 1.961 7.846 1.59785 7.59748C1.52522 7.54422 1.47075 7.47322 1.41628 7.41996Z" fill="#C34030"/>
<path d="M5.9193 16.1361C6.19166 16.6864 6.40955 17.2545 6.71823 17.7515C8.09819 19.9349 10.0773 21.3018 12.692 21.6391C14.7075 21.9053 16.6321 21.5503 18.3934 20.4675C18.4479 20.432 18.4842 20.4142 18.5387 20.3965C18.811 20.6095 19.0834 20.8047 19.3558 21.0178C19.6826 21.2663 19.9913 21.5326 20.3181 21.7811C20.8447 22.1716 21.3712 22.5444 21.8978 22.9349C22.2246 23.1834 22.5514 23.4497 22.8964 23.6982C22.3154 24.2663 21.6436 24.7278 20.9354 25.1361C18.5205 26.5385 15.8877 27.071 13.0915 26.9468C10.386 26.8403 7.91661 25.9882 5.71957 24.4616C3.86752 23.1657 2.43309 21.5326 1.41628 19.5444C1.45259 19.4911 1.4889 19.4379 1.52522 19.3846H1.54338H1.56153C1.59785 19.3669 1.65232 19.3491 1.68864 19.3314C2.26967 18.9053 2.85071 18.4793 3.43174 18.0355C4.23067 17.432 5.06591 16.7752 5.9193 16.1361Z" fill="#62A053"/>
<path d="M22.8783 23.7337C22.5514 23.4852 22.2246 23.2189 21.8796 22.9704C21.3531 22.5798 20.8265 22.2071 20.2999 21.8165C19.9731 21.568 19.6644 21.3017 19.3376 21.0532C19.0652 20.8402 18.7929 20.6272 18.5205 20.4319C19.0834 20.0236 19.61 19.5798 20.0276 19.0295C20.6449 18.213 21.0625 17.3076 21.2623 16.2603C20.9354 16.2603 20.6086 16.2603 20.2999 16.2603C20.2091 16.2248 20.1365 16.1893 20.0457 16.1893C18.0303 16.1893 16.033 16.1893 14.0175 16.1893C13.9085 16.1361 13.7996 16.1538 13.7996 15.9763C13.7996 14.3254 13.7996 12.6745 13.7996 11.0236C13.8541 11.0236 13.8904 11.0236 13.9449 11.0236C18.121 11.0236 22.2972 11.0236 26.4553 11.0236H26.4734C26.6187 11.0059 26.6913 11.0414 26.6913 11.2011C26.6913 11.2544 26.7458 11.2899 26.764 11.3432C26.9455 12.3727 27 13.4201 26.9637 14.4674C26.9092 15.6213 26.7458 16.7574 26.4371 17.8757C25.8016 20.1301 24.6759 22.0828 22.9328 23.6982C22.9328 23.7159 22.9146 23.7159 22.8783 23.7337Z" fill="#557CE6"/>
<path d="M5.9193 16.1361C5.08406 16.7751 4.24882 17.4142 3.39543 18.0532C2.81439 18.497 2.23336 18.923 1.65232 19.3491C1.61601 19.3846 1.56153 19.3846 1.52522 19.4023L1.50706 19.3846C1.50706 19.4023 1.50706 19.4023 1.50706 19.4201H1.4889C1.19839 19.2071 1.1076 18.8698 0.980498 18.568C0.835239 18.213 0.744452 17.8402 0.617351 17.4852C0.472092 17.0769 0.272361 16.7041 0.290518 16.2603C0.290518 16.2426 0.290518 16.2248 0.290518 16.2071C0.236046 15.8875 0.181574 15.5858 0.127102 15.2662C0.127102 15.2307 0.127102 15.1775 0.127102 15.142C0.0726298 14.8224 -0.018157 14.4852 -0.018157 14.1656C3.59491e-07 13.6509 -0.018157 13.1183 0.0544725 12.6035C0.127102 12.1242 0.0907872 11.6449 0.236046 11.1834C0.34499 10.7574 0.381305 10.3136 0.508407 9.88754C0.617351 9.4615 0.798924 9.07097 0.944183 8.66268C0.998655 8.52067 1.08944 8.39641 1.16207 8.2544C1.2347 8.09464 1.27102 7.91712 1.34365 7.75736C1.37996 7.68635 1.4889 7.65085 1.57969 7.5976C1.94284 7.86387 2.28783 8.11239 2.65098 8.37866C3.35911 8.9112 4.06725 9.4615 4.77539 9.99404C5.15669 10.2781 5.538 10.5621 5.9193 10.8639C5.82851 11.2544 5.71957 11.6627 5.62878 12.0532C5.44721 12.8343 5.42905 13.6153 5.538 14.4142C5.62878 14.9822 5.7922 15.568 5.9193 16.1361Z" fill="#DEB22B"/>
<path d="M13.8178 11.0237C13.8178 12.6745 13.8178 14.3254 13.8178 15.9763C13.8178 16.1538 13.9267 16.1361 14.0356 16.1361C16.0511 16.1361 18.0484 16.1361 20.0639 16.1361C20.1547 16.1361 20.2273 16.1893 20.3181 16.2071C20.1365 16.2071 19.9368 16.2071 19.7552 16.2248C17.8305 16.2248 15.9059 16.2248 13.9812 16.2248C13.9085 16.2248 13.8359 16.2248 13.7814 16.2071C13.7814 14.6982 13.7814 13.1716 13.7814 11.6627C13.7814 11.4319 13.7814 11.2189 13.7633 10.9882C13.7814 11.0059 13.7996 11.0059 13.8178 11.0237Z" fill="#5775C0"/>
<path d="M13.8178 11.0237C13.7996 11.0059 13.7814 11.0059 13.7633 11.0059C13.8359 10.9881 13.9267 10.9704 13.9993 10.9704C18.1392 10.9704 22.2791 10.9704 26.419 10.9704C26.7821 10.9704 26.7821 10.9704 26.8003 11.3432C26.7821 11.2899 26.7276 11.2544 26.7276 11.2012C26.7458 11.0414 26.655 11.0059 26.5098 11.0237H26.4916C22.3154 11.0237 18.1392 11.0237 13.9812 11.0237C13.9085 11.0237 13.8722 11.0237 13.8178 11.0237Z" fill="#6E86BF"/>
<path d="M13.7633 11.0059C13.7633 11.2367 13.7814 11.4497 13.7814 11.6805C13.7814 13.1894 13.7814 14.716 13.7814 16.2249C13.7633 16.1716 13.7451 16.1183 13.7451 16.0651C13.7451 14.432 13.7451 12.7988 13.7451 11.1834C13.727 11.1124 13.7451 11.0592 13.7633 11.0059Z" fill="#6E86BF"/>
</g>
<defs>
<clipPath id="clip0_791_2020">
<rect width="27" height="27" fill="white"/>
</clipPath>
</defs>
</svg>
